{"title":"Passion Play 2010 DVDrip English Klam","uid":6734084,"size":1378358012,"categoryP":"video","categoryS":"movies","magnet":"?xt=urn:btih:11a24f30aebad623a690c64f1758043443910a65&amp;dn=Passion+Play+2010+DVDrip+English+Klam&amp;tr=udp%3A%2F%2Ftracker.openbittorrent.com%3A80&amp;tr=udp%3A%2F%2Fopen.demonii.com%3A1337&amp;tr=udp%3A%2F%2Ftracker.coppersurfer.tk%3A6969&amp;tr=udp%3A%2F%2Fexodus.desync.com%3A6969","seeders":0,"leechers":1,"uploader":"Klambake","files":-1,"time":1318258344,"description":"With: Megan Fox, Bill Murray and Mickey Rourke\n\n'Passion Play' speelt zich af in het Los Angeles van de jaren '50 en gaat over een engel (Megan Fox), wier leven in dienst staat van de harteloze gangster Happy Shannon (Bill Murray). Maar dan wordt ze gered door de trompet spelende Nate (Mickey Rourke), met alle gevolgen van dien...\n\nAn angel under the thumb of a ruthless gangster is saved by a trumpet player down on his luck.\n\n------------------ Dutch Friends ------------------\nYou can find my Friends at: http://www.Film-Test.nl \n------ They got my dutch subs ----- and more ------\n\nGeneral:\n\nComplete name                    : Passion Play\\Passion Play.avi\nFormat                           : AVI\nFormat/Info                      : Audio Video Interleave\nFile size                        : 1.28 GiB\nDuration                         : 1h 34mn\nOverall bit rate                 : 1 950 Kbps\n\nVideo:\n\nFormat                           : MPEG-4 Visual\nFormat profile                   : Simple@L3\nFormat settings, BVOP            : No\nFormat settings, QPel            : No\nFormat settings, GMC             : No warppoints\nFormat settings, Matrix          : Default (H.263)\nCodec ID                         : XVID\nCodec ID/Hint                    : XviD\nDuration                         : 1h 34mn\nBit rate                         : 1 492 Kbps\nWidth                            : 704 pixels\nHeight                           : 396 pixels\nDisplay aspect ratio             : 16:9\nFrame rate                       : 23.976 fps\nColor space                      : YUV\nChroma subsampling               : 4:2:0\nBit depth                        : 8 bits\nScan type                        : Progressive\nCompression mode                 : Lossy\nBits/(Pixel*Frame)               : 0.223\nStream size                      : 1 005 MiB (76%)\nWriting library                  : XviD 1.1.2 (UTC 2006-11-01)\n\nAudio:\n\nFormat                           : AC-3\nFormat/Info                      : Audio Coding 3\nMode extension                   : CM (complete main)\nCodec ID                         : 2000\nDuration                         : 1h 34mn\nBit rate mode                    : Constant\nBit rate                         : 448 Kbps\nChannel(s)                       : 6 channels\nChannel positions                : Front: L C R, Side: L R, LFE\nSampling rate                    : 48.0 KHz\nBit depth                        : 16 bits\nCompression mode                 : Lossy\nStream size                      : 302 MiB (23%)\nAlignment                        : Aligned on interleaves\nInterleave, duration             : 32 ms (0.77 video frame)\nInterleave, preload duration     : 1792 ms\n\n\n","torrent":{"xt":"urn:btih:11a24f30aebad623a690c64f1758043443910a65","amp;dn":"Passion+Play+2010+DVDrip+English+Klam","amp;tr":["udp%3A%2F%2Ftracker.openbittorrent.com%3A80","udp%3A%2F%2Fopen.demonii.com%3A1337","udp%3A%2F%2Ftracker.coppersurfer.tk%3A6969","udp%3A%2F%2Fexodus.desync.com%3A6969"],"infoHash":"11a24f30aebad623a690c64f1758043443910a65","infoHashBuffer":{"type":"Buffer","data":[17,162,79,48,174,186,214,35,166,144,198,79,23,88,4,52,67,145,10,101]},"announce":[],"urlList":[]}}